<svg xmlns="http://www.w3.org/2000/svg" viewBox="0 0 400 300" width="406" height="306" class="illustration styles_illustrationTablet__1DWOa"><g id="_408_pizza_flatline" data-name="#408_pizza_flatline"><polygon points="195.3 110.17 309.6 187.27 310.99 203.74 197.3 125.39 195.3 110.17" fill="#231f20"></polygon><polygon points="286.23 97.37 166.43 33.2 195.3 110.17 309.6 187.27 286.23 97.37" fill="#e6e7e8"></polygon><path d="M309.59,187.77a.46.46,0,0,1-.27-.09L195,110.58a.41.41,0,0,1-.19-.24L166,33.38a.48.48,0,0,1,.14-.55.5.5,0,0,1,.56-.07L286.47,96.93a.49.49,0,0,1,.24.31l23.37,89.9a.5.5,0,0,1-.2.53A.43.43,0,0,1,309.59,187.77ZM195.71,109.84l113.07,76.27-23-88.4L167.36,34.27Z" fill="#231f20"></path><path d="M197.3,125.39,311,203.74s-96.65,69.36-97.15,70.06-113.28-77-113.28-77Z" fill="#d1d3d4"></path><path d="M214,274.31c-.66,0-3.29-1.71-18.3-11.83-9.41-6.36-22.51-15.27-38.92-26.5-27.93-19.11-56.17-38.56-56.45-38.75a.5.5,0,0,1-.22-.41.49.49,0,0,1,.21-.41L197,125a.53.53,0,0,1,.59,0l113.68,78.36a.49.49,0,0,1,.22.41.51.51,0,0,1-.21.41c-33,23.7-95.82,68.83-97.08,70C214.14,274.23,214.09,274.31,214,274.31ZM101.42,196.8c37.57,25.87,107.69,74,112.35,76.43,5.37-4.16,73.86-53.34,96.35-69.48L197.31,126Z" fill="#231f20"></path><polygon points="195.3 110.17 197.3 125.39 100.56 196.82 100.56 183.11 195.3 110.17" fill="#231f20"></polygon><path d="M143,201.08s4.15,12.55,7.76,18,30.85,21.32,50.75,22.51,45.48-6.16,58.27-14.69,18.71-17.53,20.13-28.19-8-26-13.26-30.08S143,201.08,143,201.08Z" fill="#231f20"></path><path d="M278.72,190.65C276.3,215,256,227.84,225,233.48c-30.23,5.5-64.67-9.91-82-32.4l7.76-3.47c14.07-6.25,42.82-18.88,48.15-20.06,0,0-20.19-25.07-25.81-32.44-.55-.71-1-1.25-1.2-1.59a9,9,0,0,1-.79-8.3,94.76,94.76,0,0,1,23.69-2.36c13.42.31,34.82,4.91,53.13,15.16C270,160.33,279.85,179.2,278.72,190.65Z" fill="#fcc868"></path><path d="M212.6,235.06c-25.89,0-54.28-13.22-70-33.68a.48.48,0,0,1-.09-.43.49.49,0,0,1,.28-.33s3.06-1.38,7.76-3.47c15.1-6.71,40.73-17.94,47.47-19.89-3.11-3.87-20.25-25.2-25.33-31.84-.55-.72-1-1.27-1.21-1.61a9.44,9.44,0,0,1-.84-8.79.54.54,0,0,1,.33-.28,96,96,0,0,1,23.83-2.38c12.59.29,34.12,4.45,53.37,15.22,12.9,7.21,20.31,15.84,24.25,21.8,4.92,7.44,7.4,15.21,6.79,21.32-2.27,22.9-20,37.06-54.17,43.27A69.1,69.1,0,0,1,212.6,235.06Zm-68.82-33.79C162,224.49,196.7,238.11,224.86,233c33.68-6.13,51.14-20,53.36-42.39h0c1.53-15.43-14.59-33.23-30.54-42.15-19.09-10.68-40.43-14.8-52.9-15.09a96.67,96.67,0,0,0-23.31,2.28,8.48,8.48,0,0,0,.83,7.59c.24.34.64.87,1.18,1.58,5.56,7.27,25.6,32.17,25.81,32.42a.55.55,0,0,1,.08.48.5.5,0,0,1-.37.32c-5.38,1.2-35.39,14.41-48.05,20Z" fill="#231f20"></path><path d="M261.43,204.86c-7.82,8.77-30.56,24.16-60.64,18.24s-50-25.49-50-25.49c6.13-2.72,15-6.66,23.59-10.32,3.57-1.53,7.07-3,10.29-4.35,6.76-2.81,12.23-4.94,14.27-5.39,0,0-20.19-25.07-25.81-32.44l.69-3.42s19-3.48,38.85,0,41,15.8,50,29.54S269.24,196.1,261.43,204.86Z" fill="#fff"></path><path d="M214.12,225a69.28,69.28,0,0,1-13.44-1.33c-29.9-5.89-50.12-25.44-50.32-25.64a.52.52,0,0,1-.15-.49.56.56,0,0,1,.32-.41c9.27-4.11,17-7.49,23.59-10.32,4-1.74,7.42-3.16,10.3-4.35,6.69-2.78,11.22-4.53,13.51-5.2-3.23-4-20.23-25.17-25.28-31.78a.56.56,0,0,1-.11-.45l.7-3.42a.56.56,0,0,1,.44-.43c.2,0,19.28-3.46,39,0,20.18,3.53,41.36,16,50.35,29.77,8.25,12.59,7.83,24.14-1.24,34.31C255.09,212.8,237.56,225,214.12,225Zm-62.38-27.19c3.54,3.23,22.44,19.52,49.16,24.78,29.61,5.83,52.27-9.27,60.11-18.07,8.7-9.75,9.08-20.84,1.14-33-8.84-13.49-29.7-25.81-49.61-29.29-18.06-3.17-35.56-.52-38.29-.07l-.57,2.81c5.76,7.51,25.45,32,25.65,32.22a.55.55,0,0,1-.31.88c-1.82.41-6.59,2.21-14.18,5.37-2.87,1.19-6.23,2.61-10.28,4.34C168.14,190.55,160.67,193.82,151.74,197.78Z" fill="#231f20"></path><path d="M198.9,177.54s-30.32-25.66-30.17-28.34.48-14.29,2.37-14a5,5,0,0,1,2.69,6.47C180.61,151.69,195.05,171.78,198.9,177.54Z" fill="#231f20"></path><circle cx="197.54" cy="149.3" r="5.11" fill="#fcc868"></circle><circle cx="204.55" cy="161.25" r="4.24" fill="#fcc868"></circle><ellipse cx="212.94" cy="152.34" rx="3.37" ry="4.04" fill="#fcc868"></ellipse><ellipse cx="226.13" cy="153.05" rx="4.02" ry="4.76" fill="#fcc868"></ellipse><circle cx="223.69" cy="166.13" r="4.42" fill="#fcc868"></circle><ellipse cx="239.24" cy="161.2" rx="5.29" ry="3.4" fill="#fcc868"></ellipse><ellipse cx="248.45" cy="172.82" rx="6.66" ry="4.73" fill="#fcc868"></ellipse><ellipse cx="233.95" cy="181.14" rx="6.12" ry="5.29" fill="#fcc868"></ellipse><circle cx="256.61" cy="192.15" r="5.45" fill="#fcc868"></circle><circle cx="242.93" cy="200.34" r="3.69" fill="#fcc868"></circle><ellipse cx="237.45" cy="214.68" rx="4.33" ry="3.82" fill="#fcc868"></ellipse><ellipse cx="220.87" cy="198.84" rx="7.24" ry="5.19" fill="#fcc868"></ellipse><ellipse cx="215.44" cy="181.14" rx="4.55" ry="3.6" fill="#fcc868"></ellipse><ellipse cx="209.58" cy="190.18" rx="4.05" ry="3.47" fill="#fcc868"></ellipse><ellipse cx="206.63" cy="209.84" rx="4.84" ry="6.31" transform="translate(-85.72 174.32) rotate(-38.51)" fill="#fcc868"></ellipse><ellipse cx="191.24" cy="201.62" rx="6.24" ry="4.97" fill="#fcc868"></ellipse><ellipse cx="186.99" cy="214.26" rx="4.25" ry="3.4" fill="#fcc868"></ellipse><ellipse cx="172.92" cy="199.55" rx="4.48" ry="5.92" transform="translate(-88.32 161.11) rotate(-40.72)" fill="#fcc868"></ellipse><path d="M188.08,188c0,2.74-3.07,5-6.87,5s-6.83-2.2-6.87-4.92c3.57-1.53,7.07-3,10.29-4.35C186.69,184.52,188.08,186.13,188.08,188Z" fill="#fcc868"></path><path d="M213.63,170.36h-5.58a.56.56,0,0,1,0-1.11h5.58a.56.56,0,1,1,0,1.11Z" fill="#d1d3d4"></path><path d="M219.27,212.84a.41.41,0,0,1-.16,0l-4.74-1.42a.55.55,0,0,1-.37-.69.56.56,0,0,1,.69-.37l4.73,1.42a.56.56,0,0,1-.15,1.09Z" fill="#d1d3d4"></path><path d="M214.52,164.12a.56.56,0,0,1-.54-.44.55.55,0,0,1,.43-.65c.52-.11.8-.62,1.21-1.44a6.77,6.77,0,0,1,.77-1.29,3.27,3.27,0,0,1,3.2-1.08.56.56,0,0,1-.26,1.08,2.13,2.13,0,0,0-2.08.7,5.91,5.91,0,0,0-.64,1.09c-.42.84-.89,1.79-2,2Z" fill="#d1d3d4"></path><path d="M203.28,199.09a.52.52,0,0,1-.46-.25,30.15,30.15,0,0,0-4.55-5.4.55.55,0,0,1,0-.78.54.54,0,0,1,.78,0,30.53,30.53,0,0,1,4.72,5.61.54.54,0,0,1-.16.76A.53.53,0,0,1,203.28,199.09Z" fill="#d1d3d4"></path><path d="M231.34,197.22a.55.55,0,0,1-.55-.52.54.54,0,0,1,.52-.58,12,12,0,0,0,4.37-1.09.54.54,0,0,1,.73.26.56.56,0,0,1-.26.74,13,13,0,0,1-4.78,1.19Z" fill="#d1d3d4"></path><path d="M242.28,187a.54.54,0,0,1-.5-.33.55.55,0,0,1,.27-.73l5.61-2.54a.55.55,0,1,1,.46,1L242.51,187A.59.59,0,0,1,242.28,187Z" fill="#d1d3d4"></path><path d="M204.1,220.43a.58.58,0,0,1-.26-.06l-7.27-3.78a.55.55,0,0,1,.51-1l7.27,3.78a.56.56,0,0,1,.24.75A.54.54,0,0,1,204.1,220.43Z" fill="#d1d3d4"></path><path d="M220.86,219.47h-.1a.54.54,0,0,1-.44-.64,6.77,6.77,0,0,1,3.05-4.52.55.55,0,0,1,.76.18.56.56,0,0,1-.17.76A5.69,5.69,0,0,0,221.4,219,.55.55,0,0,1,220.86,219.47Z" fill="#d1d3d4"></path><path d="M189.62,188.86a.5.5,0,0,1-.31-.1.54.54,0,0,1-.15-.76l2.81-4.13a.56.56,0,0,1,.77-.15.55.55,0,0,1,.14.77l-2.81,4.13A.53.53,0,0,1,189.62,188.86Z" fill="#d1d3d4"></path><path d="M175.72,209.74a.55.55,0,0,1-.28-1l5-2.9a.56.56,0,0,1,.76.2.56.56,0,0,1-.21.76l-5,2.89A.56.56,0,0,1,175.72,209.74Z" fill="#d1d3d4"></path><path d="M159.67,198.73a.53.53,0,0,1-.4-.18.54.54,0,0,1,0-.78,16.35,16.35,0,0,1,4.38-2.92.55.55,0,0,1,.46,1,15.47,15.47,0,0,0-4.09,2.73A.55.55,0,0,1,159.67,198.73Z" fill="#d1d3d4"></path><path d="M239.24,209.59a8.78,8.78,0,0,1-4.49-1.22.55.55,0,0,1-.19-.75.56.56,0,0,1,.76-.2,7.7,7.7,0,0,0,6.52.61.55.55,0,0,1,.37,1A8.6,8.6,0,0,1,239.24,209.59Z" fill="#d1d3d4"></path><path d="M255.27,180.31a.56.56,0,0,1-.41-.92,14.45,14.45,0,0,1,3.6-3,.56.56,0,0,1,.76.2.55.55,0,0,1-.2.75,13.14,13.14,0,0,0-3.33,2.74A.55.55,0,0,1,255.27,180.31Z" fill="#d1d3d4"></path><path d="M249.27,205a.77.77,0,0,1-.61-.31.72.72,0,0,1-.1-.78,1.08,1.08,0,0,1,1.08-.53l5.3.07a.55.55,0,1,1,0,1.1h0l-5-.06a.63.63,0,0,1-.48.49Z" fill="#d1d3d4"></path><path d="M225.58,190.43h0l-5.36-.36a.55.55,0,1,1,.07-1.1l5.37.35a.56.56,0,0,1,0,1.11Z" fill="#d1d3d4"></path><path d="M222.49,177.33A.56.56,0,0,1,222,177a.57.57,0,0,1,.34-.71,15.9,15.9,0,0,0,3.92-2,.55.55,0,0,1,.63.91,17.72,17.72,0,0,1-4.18,2.13Z" fill="#d1d3d4"></path><path d="M233.8,166.7h-.13l-3.5-.81a.55.55,0,1,1,.25-1.08l3.5.81a.55.55,0,0,1-.12,1.09Z" fill="#d1d3d4"></path><path d="M230.53,157.78a.54.54,0,0,1-.39-.16.56.56,0,0,1,0-.78,48.41,48.41,0,0,1,3.69-3.33.55.55,0,0,1,.7.86c-1.25,1-2.46,2.11-3.61,3.25A.51.51,0,0,1,230.53,157.78Z" fill="#d1d3d4"></path><path d="M205.37,145.55a.55.55,0,0,1-.13-1.09l3.79-.92a.56.56,0,0,1,.67.41.55.55,0,0,1-.41.67l-3.79.92Z" fill="#d1d3d4"></path><path d="M189,155.33a.6.6,0,0,1-.32-.1,5.5,5.5,0,0,1-2.2-3.48.55.55,0,1,1,1.08-.19,4.39,4.39,0,0,0,1.76,2.77.55.55,0,0,1-.32,1Z" fill="#d1d3d4"></path><path d="M193,162.58a.59.59,0,0,1-.31-.09.56.56,0,0,1-.15-.77l2.68-4a.55.55,0,0,1,.92.61l-2.68,4A.56.56,0,0,1,193,162.58Z" fill="#d1d3d4"></path><path d="M199,169.59a.6.6,0,0,1-.29-.08l-4.1-2.53a.55.55,0,1,1,.58-.94l4.1,2.52a.56.56,0,0,1-.29,1Z" fill="#d1d3d4"></path><path d="M198.9,178a.51.51,0,0,1-.41-.2.5.5,0,0,1,0-.55l20.28-34.4a.5.5,0,0,1,.87.51l-19.7,33.41,57.3-12.63a.49.49,0,0,1,.59.38.5.5,0,0,1-.38.6L199,178Z" fill="#231f20"></path><path d="M235.09,221.58a.5.5,0,0,1-.39-.18l-36.19-43.54a.51.51,0,0,1,0-.6.52.52,0,0,1,.58-.19l66.07,22.53a.5.5,0,0,1,.32.64.51.51,0,0,1-.64.31l-64.39-22,35.05,42.17a.49.49,0,0,1-.06.7A.51.51,0,0,1,235.09,221.58Z" fill="#231f20"></path><path d="M182.74,218.16a.58.58,0,0,1-.19,0,.5.5,0,0,1-.28-.65l16.16-40.11a.5.5,0,0,1,.65-.28.5.5,0,0,1,.28.65L183.2,217.84A.5.5,0,0,1,182.74,218.16Z" fill="#231f20"></path><polygon points="100.56 183.11 213.84 260.2 213.84 273.8 100.56 196.82 100.56 183.11" fill="#fff"></polygon><path d="M213.84,274.35a.54.54,0,0,1-.31-.1l-113.28-77a.54.54,0,0,1-.24-.45V183.11a.55.55,0,0,1,.86-.46l113.28,77.09a.53.53,0,0,1,.25.46v13.6a.57.57,0,0,1-.3.49A.58.58,0,0,1,213.84,274.35ZM101.11,196.52l112.18,76.23V260.49L101.11,184.15Z" fill="#231f20"></path><polygon points="309.6 187.27 297.74 186.76 277.16 105.74 286.23 97.37 309.6 187.27" fill="#fff"></polygon><path d="M309.59,187.82h0l-11.86-.51a.56.56,0,0,1-.51-.41l-20.57-81a.56.56,0,0,1,.16-.55L285.86,97a.56.56,0,0,1,.53-.12.55.55,0,0,1,.38.39l23.36,89.9a.56.56,0,0,1-.54.69Zm-11.42-1.59,10.7.45L285.93,98.4l-8.15,7.52Z" fill="#231f20"></path><polygon points="195.3 110.17 183.52 108.5 157.16 39.13 166.43 33.2 195.3 110.17" fill="#e6e7e8"></polygon><path d="M195.3,110.67h-.07L183.45,109a.52.52,0,0,1-.4-.32L156.69,39.31a.5.5,0,0,1,.2-.6l9.27-5.93a.48.48,0,0,1,.42-.05.49.49,0,0,1,.31.3l28.87,77a.48.48,0,0,1-.07.49A.51.51,0,0,1,195.3,110.67Zm-11.42-2.62,10.65,1.51L166.18,34l-8.41,5.37Z" fill="#231f20"></path><polygon points="166.43 33.2 170.74 26.2 279.27 87.26 286.23 97.37 166.43 33.2" fill="#fff"></polygon><path d="M286.23,97.92a.58.58,0,0,1-.26-.06L166.17,33.69a.53.53,0,0,1-.28-.34.54.54,0,0,1,.07-.43l4.31-7a.55.55,0,0,1,.74-.19L279.54,86.78a.49.49,0,0,1,.19.16l7,10.12a.56.56,0,0,1-.05.68A.54.54,0,0,1,286.23,97.92ZM167.2,33,284.48,95.81l-5.59-8.13-108-60.74Z" fill="#231f20"></path><path d="M90.83,150.7s-4.22-4.6.19-7.6,11.18-1.68,10.13,7.17c0,0,63,22.4,75.84,23.3,0,0-3.07,4-6.08,3.84-16.12-1.07-42-5.95-53.38-9.72C95.38,160.37,92.36,153.3,90.83,150.7Z" fill="#231f20"></path><path d="M91,143.1a55.12,55.12,0,0,1,15.5-12.4c10.85-5.77,25.94-12.44,28.45-11.36,3.31,1.42,9.91,4.35,3.11,11.34l-36.93,19.59S97,141,91,143.1Z" fill="#fcc868"></path><path d="M101.15,150.77a.51.51,0,0,1-.17,0,.46.46,0,0,1-.29-.27c0-.09-4-8.86-9.51-6.9a.48.48,0,0,1-.57-.18.5.5,0,0,1,0-.6,56.2,56.2,0,0,1,15.65-12.53c8.08-4.29,25.76-12.73,28.88-11.38,2,.86,5.7,2.45,6.3,5.46.39,2-.63,4.22-3,6.69a.6.6,0,0,1-.13.09l-36.93,19.59A.46.46,0,0,1,101.15,150.77Zm-8.31-8.49c4.54,0,7.67,5.59,8.53,7.3l36.4-19.31c2.12-2.19,3-4.12,2.71-5.74-.5-2.49-3.76-3.89-5.71-4.73s-15.07,4.45-28,11.34a56.39,56.39,0,0,0-14.36,11.15Z" fill="#231f20"></path><path d="M177,173.57s-22.88-4.3-40.71-8.36c-4.42-1-8.53-2-11.9-2.91l-.53-.16c-16.59-4.59-22.7-11.87-22.7-11.87s9.47-9.86,19-13.25l17.88-6.34S174,171.86,177,173.57Z" fill="#fff"></path><path d="M177,174.12h-.11c-.23,0-23.09-4.34-40.72-8.36-4.71-1.07-8.72-2.05-11.92-2.92l-.17-.05-.4-.11c-16.53-4.58-22.69-11.74-23-12a.55.55,0,0,1,0-.74c.39-.41,9.68-10,19.27-13.39l17.87-6.34a.54.54,0,0,1,.6.16c10,11.43,36.36,41.41,38.77,42.77a.55.55,0,0,1-.27,1Zm-75.08-23.84c1.5,1.52,8,7.43,22.08,11.33l.37.11.17,0c3.19.87,7.18,1.84,11.87,2.91,14.58,3.32,32.74,6.84,38.7,8-7.31-7.1-34.08-37.76-37.19-41.32l-17.52,6.21C112.09,140.48,103.74,148.46,101.91,150.28Z" fill="#231f20"></path><circle cx="137.64" cy="145.66" r="5.55" fill="#fcc868"></circle><path d="M136.28,165.21c-4.42-1-8.53-2-11.9-2.91l-.53-.16a11.06,11.06,0,0,1,.38-1c1.75-4,5.78-6.16,9-4.76C136.22,157.62,137.47,161.46,136.28,165.21Z" fill="#fcc868"></path><ellipse cx="155.06" cy="161.16" rx="5.95" ry="6.88" transform="translate(-54.45 239.38) rotate(-66.58)" fill="#fcc868"></ellipse><path d="M143,161.31a.54.54,0,0,1-.39-.16l-4.24-4.08a.56.56,0,0,1,0-.79.55.55,0,0,1,.78,0l4.25,4.09a.55.55,0,0,1,0,.78A.58.58,0,0,1,143,161.31Z" fill="#d1d3d4"></path><path d="M146.54,150.93a.74.74,0,0,1-.39-.11.64.64,0,0,1-.28-.72.84.84,0,0,1,.9-.58h3.14a.56.56,0,0,1,0,1.11h-2.83a.53.53,0,0,1-.11.15A.63.63,0,0,1,146.54,150.93Z" fill="#d1d3d4"></path><path d="M118.85,156.53a.57.57,0,0,1-.22,0,6.2,6.2,0,0,1-3.58-4.32.55.55,0,0,1,.42-.66.56.56,0,0,1,.66.42,5.09,5.09,0,0,0,2.93,3.54.55.55,0,0,1-.21,1.06Z" fill="#d1d3d4"></path><path d="M125.17,147.21l-.13,0a78.62,78.62,0,0,0-8.74-1.63.56.56,0,0,1-.48-.62.55.55,0,0,1,.62-.48,77.69,77.69,0,0,1,8.86,1.66.55.55,0,0,1,.41.66A.55.55,0,0,1,125.17,147.21Z" fill="#d1d3d4"></path><path d="M127.5,138.59a.55.55,0,0,1-.06-1.1c2.19-.25,4.41-.42,6.6-.51a.55.55,0,0,1,.05,1.1c-2.17.1-4.36.26-6.53.5Z" fill="#d1d3d4"></path><polygon points="213.84 260.2 309.6 187.27 310.99 203.74 213.84 273.8 213.84 260.2" fill="#fff"></polygon><path d="M213.84,274.35a.55.55,0,0,1-.55-.55V260.2a.53.53,0,0,1,.22-.44l95.75-72.93a.54.54,0,0,1,.56-.07.57.57,0,0,1,.33.46l1.39,16.48a.53.53,0,0,1-.23.49l-97.14,70.06A.64.64,0,0,1,213.84,274.35Zm.56-13.88v12.25l96-69.24-1.28-15.16Z" fill="#231f20"></path></g></svg>